<svg width="877" height="732.80939" xmlns="http://www.w3.org/2000/svg" data-name="Layer 1">
 <title>unexpected friends</title>

 <g>
  <title>Layer 1</title>
  <rect transform="rotate(30 156.967 -194.613)" id="svg_1" fill="#f2f2f2" height="98" width="98" y="123.86425" x="516.46711"/>
  <path id="svg_10" fill="#3f3d56" d="m347,411.88169a22,22 0 1 1 22,-22a22.02489,22.02489 0 0 1 -22,22zm0,-42a20,20 0 1 0 20,20a20.02229,20.02229 0 0 0 -20,-20z"/>
  <circle id="svg_12" fill="#f2f2f2" r="35" cy="384.88168" cx="725"/>
  <circle id="svg_13" fill="#2f2e41" r="33.78065" cy="115.96962" cx="541.96644"/>
  <path id="svg_14" fill="#2f2e41" d="m478.44192,354.73139l7.83666,152.81483s-1.30611,109.71321 6.53055,111.01932s22.20387,10.44888 26.12219,3.91833s23.51,-207.67143 23.51,-207.67143s5.22444,208.97754 20.89775,210.28365s33.95885,-6.53055 36.57107,-5.22444s1.30609,-261.22196 1.30609,-261.22196l-122.77431,-3.9183z"/>
  <path id="svg_15" fill="#2f2e41" d="m501.9519,617.25943s-9.14277,0 -11.755,3.91833s-11.755,23.51 -11.755,23.51s-16.9794,15.59162 1.3061,16.89773s27.42831,-2.53055 27.42831,-5.14277s0,-9.14276 3.91833,-10.44887s7.83665,-7.83666 7.83665,-10.44888s-3.91829,-19.59165 -16.97939,-18.28554z"/>
  <path id="svg_16" fill="#2f2e41" d="m572.48182,618.56554s-6.53055,26.1222 0,27.42831s10.44888,3.91833 11.755,7.83665s14.3672,8.44888 24.81608,7.14277s15.67332,-8.44887 11.755,-12.3672s-23.51,-26.1222 -24.81609,-30.04053s-23.50999,0 -23.50999,0z"/>
  <path id="svg_17" fill="#9f616a" d="m526.768,140.52941s-2.61222,19.59164 -7.83666,22.20386s2.61222,16.97943 2.61222,16.97943l23.51,3.91833l20.89775,-16.97943s-3.91833,-24.81608 -3.91833,-26.12219s-35.26498,0 -35.26498,0z"/>
  <path id="svg_18" opacity="0.1" d="m526.768,140.52941s-2.61222,19.59164 -7.83666,22.20386s2.61222,16.97943 2.61222,16.97943l23.51,3.91833l20.89775,-16.97943s-3.91833,-24.81608 -3.91833,-26.12219s-35.26498,0 -35.26498,0z"/>
  <circle id="svg_19" fill="#9f616a" r="31.34663" cy="126.16221" cx="541.13519"/>
  <path id="svg_20" fill="#575a88" d="m540.48213,179.05969s-13.06113,-22.20391 -19.59164,-20.8978s-26.77525,4.57138 -29.38747,3.26527s-19.59164,58.77494 -19.59164,58.77494s-18.28554,118.856 -6.53055,133.22318s52.24438,6.53055 57.46882,20.89776s87.50935,-7.83666 87.50935,-15.67335s1.30611,-127.99874 2.61222,-137.14151s-11.755,-57.46883 -11.755,-57.46883s-30.69357,-8.48971 -35.918,-5.87749s-7.83666,10.44891 -24.81609,20.89783z"/>
  <path id="svg_21" fill="#575a88" d="m494.11524,165.34549l-2.61222,-3.91833s-27.4283,3.91833 -35.265,2.61222s-31.34663,1.30611 -31.34663,1.30611s5.22444,-14.3672 10.44888,-15.67331s11.755,-5.22444 11.755,-5.22444s-13.06109,-19.59165 0,-26.12219c0,0 -60.081,23.51 -63.99937,45.71383s91.42768,56.16272 91.42768,56.16272l19.59166,-54.85661z"/>
  <path id="svg_22" fill="#575a88" d="m590.76736,166.6516l10.44887,-2.61222l52.24439,5.22444l-16.97943,-18.28553s10.44888,-13.0611 3.91833,-19.59165c0,0 69.22381,26.1222 61.38716,43.10162s-90.12157,47.01995 -94.0399,48.32606s-16.97942,-56.16272 -16.97942,-56.16272z"/>
  <path id="svg_23" fill="#9f616a" d="m454.21069,121.84296c3.23328,0.64219 5.99624,2.66188 8.64207,4.62812a83.955,83.955 0 0 1 7.36809,5.91758c11.87851,11.10521 16.24553,27.86021 20.02351,43.67638c-2.68962,2.26643 -7.08168,0.38166 -8.88679,-2.637s-1.93025,-6.70535 -2.63957,-10.15035s-2.44347,-7.14735 -5.79577,-8.21169c0.70492,2.18657 -0.9964,4.56136 -3.12342,5.42958s-4.5228,0.62843 -6.8061,0.37433a9.40472,9.40472 0 0 1 -3.08812,-0.70329c-1.77236,-0.8571 -2.808,-2.70068 -3.77256,-4.4169a135.83565,135.83565 0 0 0 -8.28314,-12.9597a9.622,9.622 0 0 0 -2.61066,-2.734c-4.18363,-2.554 -8.67637,-5.89411 -6.59325,-11.95711c1.71954,-5.00469 11.00123,-7.1625 15.56571,-6.25595z"/>
  <path id="svg_24" fill="#9f616a" d="m627.86674,129.61633c-4.70064,0.2342 -8.75385,3.29348 -12.19593,6.50329a85.49458,85.49458 0 0 0 -26.24941,51.21819c-0.1676,1.31369 -0.22,2.86027 0.78591,3.72163c1.131,0.96847 2.99591,0.39511 3.92474,-0.76871a9.5512,9.5512 0 0 0 1.48795,-4.16411a46.529,46.529 0 0 1 4.62409,-12.71665c1.10461,-2.04649 2.63911,-4.20148 4.93629,-4.5638c3.42081,-0.53956 5.979,3.08347 9.24662,4.23067c3.85668,1.354 8.17756,-1.07085 10.52211,-4.419s3.26106,-7.45258 4.55269,-11.3306c1.29148,-3.87758 3.2068,-7.85419 6.73168,-9.9225c3.75324,-2.20231 12.39444,-3.73246 8.73005,-9.91337c-2.66275,-4.49145 -12.1781,-8.12004 -17.09679,-7.87504z"/>
  <path id="svg_25" fill="#2f2e41" d="m507.18422,108.81692s-8.32986,-21.65764 3.74843,-28.738l3.332,9.57934s30.404,-18.32569 38.31735,-14.16076l-7.49688,9.99583s35.40191,0 37.90086,13.74427l-12.49478,0.41649s13.32777,8.74635 13.74426,22.90711l-26.65555,1.666l12.91129,7.49687s-48.31319,6.66389 -59.975,-12.49479l-3.33198,-10.41236z"/>
  <path id="svg_26" fill="#575a88" d="m426.85059,133.34581l19.59165,-15.67332s-6.53055,19.59165 0,26.12219l-24.81609,5.22444l5.22444,-15.67331z"/>
  <path id="svg_27" fill="#575a88" d="m655.41978,142.48857l-16.97942,-13.06109s2.61222,16.97942 -2.61222,20.89775s14.3672,5.22444 14.3672,5.22444l5.22444,-13.0611z"/>
  <circle id="svg_28" fill="#6c63ff" r="72" cy="624.42464" cx="259.63425"/>
  <path id="svg_29" fill="#3f3d56" d="m191.30694,539.35069c14.35551,18.93827 39.38779,24.13728 39.38779,24.13728s1.75739,-25.506 -12.59812,-44.44427s-39.38779,-24.13728 -39.38779,-24.13728s-1.75739,25.506 12.59812,44.44427z"/>
  <path id="svg_30" fill="#6c63ff" d="m197.91131,531.36083c22.002,8.98066 33.48617,31.82267 33.48617,31.82267s-24.188,8.28149 -46.19,-0.69917s-33.48618,-31.82264 -33.48618,-31.82264s24.18805,-8.28152 46.19001,0.69914z"/>
  <path id="svg_31" fill="#3f3d56" d="m222.26881,518.04899c-2.79012,23.59987 11.64,44.70478 11.64,44.70478s18.95378,-17.15806 21.7439,-40.75793s-11.64,-44.70478 -11.64,-44.70478s-18.95377,17.15805 -21.7439,40.75793z"/>
  <path id="svg_32" fill="#6c63ff" d="m232.5679,516.87232c9.62433,21.72811 2.05834,46.14942 2.05834,46.14942s-23.17013,-10.80693 -32.79446,-32.535s-2.05835,-46.14942 -2.05835,-46.14942s23.17013,10.80688 32.79447,32.535z"/>
  <circle id="svg_33" fill="#f2f2f2" r="37" cy="628.13356" cx="231.85305"/>
  <circle id="svg_34" fill="#3f3d56" r="12" cy="639.87525" cx="217.81677"/>
  <circle id="svg_35" fill="#6c63ff" r="72" cy="590.88168" cx="543"/>
  <path id="svg_36" fill="#3f3d56" d="m511.56365,486.39269c6.20562,22.93969 27.46125,37.14681 27.46125,37.14681s11.19435,-22.98545 4.98873,-45.92514s-27.46125,-37.14681 -27.46125,-37.14681s-11.19438,22.98542 -4.98873,45.92514z"/>
  <path id="svg_37" fill="#6c63ff" d="m520.68237,481.46269c17.0283,16.57636 19.10818,42.05809 19.10818,42.05809s-25.52845,-1.39387 -42.55675,-17.97023s-19.10818,-42.05809 -19.10818,-42.05809s25.52844,1.39385 42.55675,17.97023z"/>
  <path id="svg_38" fill="#3f3d56" d="m548.25437,478.25687c-11.43687,20.83115 -5.97464,45.80731 -5.97464,45.80731s24.00506,-8.79781 35.44193,-29.629s5.97465,-45.80731 5.97465,-45.80731s-24.00506,8.79782 -35.44194,29.629z"/>
  <path id="svg_39" fill="#6c63ff" d="m558.24308,481.02842c0.77349,23.75164 -15.39875,43.55323 -15.39875,43.55323s-17.42632,-18.70742 -18.19981,-42.45907s15.39875,-43.55324 15.39875,-43.55324s17.42632,18.70743 18.19981,42.45908z"/>
  <circle id="svg_40" fill="#f2f2f2" r="37" cy="582.88168" cx="540"/>
  <circle id="svg_41" fill="#3f3d56" r="12" cy="561.88168" cx="540"/>
  <rect id="svg_42" fill="#2f2e41" height="2" width="375" y="660.88168" x="367"/>
  <path id="svg_44" fill="#3f3d56" d="m327.13894,566.91385l32.78777,-26.258"/>
  <path id="svg_45" fill="#3f3d56" d="m329.23734,587.14888q14.86337,-12.01156 30.77383,-22.64419"/>
  <path id="svg_46" fill="#3f3d56" d="m351.107,585.01777a113.66528,113.66528 0 0 0 31.24964,-21.96578"/>
  <circle id="svg_47" fill="#3f3d56" r="18" cy="674.88168" cx="269"/>
  <path id="svg_49" fill="#3f3d56" d="m712,661.88169a22,22 0 1 1 22,-22a22.02489,22.02489 0 0 1 -22,22zm0,-42a20,20 0 1 0 20,20a20.02229,20.02229 0 0 0 -20,-20z"/>
 </g>
</svg>