<svg width="746.66906" height="798.37713" xmlns="http://www.w3.org/2000/svg" data-name="Layer 1">
 <title>different love</title>

 <g>
  <title>Layer 1</title>
  <g stroke="null" id="f9f9bcf5-f65d-4586-b32b-ca2676d797c4" data-name="ground">
   <path stroke="null" d="m689.35972,624.86691c0,7.12408 -147.82656,45.73381 -330.17987,45.73381s-330.17986,-38.60973 -330.17986,-45.73381s147.82656,4.69066 330.17986,4.69066s330.17987,-11.81474 330.17987,-4.69066z" fill="#3f3d56" id="svg_2"/>
   <path stroke="null" d="m689.35972,624.86691c0,7.12408 -147.82656,45.73381 -330.17987,45.73381s-330.17986,-38.60973 -330.17986,-45.73381s147.82656,4.69066 330.17986,4.69066s330.17987,-11.81474 330.17987,-4.69066z" opacity="0.1" id="svg_3"/>
   <ellipse stroke="null" cx="359.17987" cy="624.86691" rx="330.17987" ry="12.89928" fill="#3f3d56" id="svg_4"/>
  </g>
  <line x1="71.84173" y1="630.0036" x2="71.84173" y2="248" fill="#3f3d56" stroke="#3f3d56" stroke-miterlimit="10" stroke-width="2" id="svg_8"/>
  <circle cx="71.84173" cy="247.81655" r="16.41727" fill="#3f3d56" id="svg_9"/>
  <circle cx="21.41727" cy="527.98201" r="16.41727" fill="#3f3d56" id="svg_10"/>
  <path d="m71.84172,331.67674s-2.34532,-50.44292 -50.42446,-44.57961" fill="#3f3d56" id="svg_11"/>
  <path d="m71.84172,474.67674s-2.34532,-50.44292 -50.42446,-44.57961" fill="#3f3d56" id="svg_12"/>
  <path d="m71.84172,625.49083s10.554,-92.81816 -50.42446,-97.50881" fill="none" stroke="#3f3d56" stroke-miterlimit="10" stroke-width="2" id="svg_13"/>
  <circle cx="122.27338" cy="527.98201" r="16.41727" fill="#3f3d56" id="svg_14"/>
  <path d="m71.84892,625.49083s-10.554,-92.81816 50.42446,-97.50881" fill="none" stroke="#3f3d56" stroke-miterlimit="10" stroke-width="2" id="svg_15"/>
  <circle cx="123.27338" cy="373.98201" r="16.41727" fill="#3f3d56" id="svg_16"/>
  <path d="m72.84892,471.49083s-10.554,-92.81816 50.42446,-97.50881" fill="none" stroke="#3f3d56" stroke-miterlimit="10" stroke-width="2" id="svg_17"/>
  <line x1="608.97842" y1="619.0036" x2="608.97842" y2="386.81655" fill="#3f3d56" stroke="#3f3d56" stroke-miterlimit="10" stroke-width="2" id="svg_18"/>
  <circle cx="608.97842" cy="386.81655" r="16.41727" fill="#3f3d56" id="svg_19"/>
  <path d="m608.97841,453.67674s2.34533,-50.44292 50.42447,-44.57961" fill="#3f3d56" id="svg_20"/>
  <path d="m608.97841,614.49083s-10.55395,-92.81816 50.42447,-97.50881" fill="none" stroke="#3f3d56" stroke-miterlimit="10" stroke-width="2" id="svg_21"/>
  <circle cx="659.40288" cy="516.98201" r="16.41727" fill="#3f3d56" id="svg_22"/>
  <circle cx="530.34532" cy="199" r="64" fill="#ff6584" id="svg_23"/>
  <circle cx="483.74191" cy="511.9364" r="79" fill="#2f2e41" id="svg_24"/>
  <rect transform="rotate(-180 1237.15 1273.68)" x="1954.55667" y="1930.43203" width="24" height="43" fill="#2f2e41" id="svg_25"/>
  <rect transform="rotate(-180 1141.15 1273.68)" x="1810.55667" y="1930.43203" width="24" height="43" fill="#2f2e41" id="svg_26"/>
  <ellipse transform="rotate(-30 -483.168 349.744)" cx="193.23941" cy="1053.99139" rx="20" ry="7.5" fill="#2f2e41" id="svg_27"/>
  <ellipse transform="rotate(-30 -476.871 373.244)" cx="246.53623" cy="1077.49139" rx="20" ry="7.5" fill="#2f2e41" id="svg_28"/>
  <circle cx="481.74191" cy="491.9364" r="27" fill="#fff" id="svg_29"/>
  <circle cx="472.54646" cy="480.4364" r="9" fill="#3f3d56" id="svg_30"/>
  <path d="m560.37453,438.46868c6.37889,-28.56758 -14.01185,-57.43392 -45.544,-64.47477s-62.2651,10.41 -68.644,38.9776s14.51861,39.10379 46.05075,46.14464s61.75841,7.92011 68.13725,-20.64747z" fill="#6c63ff" id="svg_31"/>
  <ellipse transform="rotate(-66.8288 -357.608 846.318)" cx="278.58475" cy="1413.90892" rx="12.40027" ry="39.5" fill="#2f2e41" id="svg_32"/>
  <ellipse transform="rotate(-66.8288 -316.567 1014.52)" cx="467.62515" cy="1635.11589" rx="12.40027" ry="39.5" fill="#2f2e41" id="svg_33"/>
  <path d="m499.54646,546.4364a18,18 0 0 1 -36,0c0,-9.94113 8.05887,-12 18,-12s18,2.05887 18,12z" fill="#fff" id="svg_34"/>
  <line x1="389.58273" y1="488.34892" x2="389.58273" y2="372.2554" fill="none" stroke="#6c63ff" stroke-miterlimit="10" stroke-width="2" id="svg_35"/>
  <circle cx="389.58273" cy="372.2554" r="16.41727" fill="#6c63ff" id="svg_36"/>
  <path d="m389.58273,443.80624s-2.34532,-50.44293 -50.42446,-44.57962" fill="#6c63ff" id="svg_37"/>
  <path d="m235.23262,408.8614l6.36377,15l5.63623,0l-8,-38c0,-24.39074 -11.77246,-45 -36.16333,-45l-0.00025,0a30.83661,30.83661 0 0 0 -30.83642,30.83655l0,37.26782a14.89557,14.89557 0 0 0 14.89551,14.89563l43.72949,0l4.375,-15z" fill="#2f2e41" id="svg_38"/>
  <path d="m261.84532,559.71047s83,-10 93,8s3,33 -10,42s-85,50 -85,50l-6,10l-13,-2l-13,-12l6,-11s50,-30 51,-38c0,0 -46,21 -51,17s-61,-23 -52,-34s32,-27 32,-27l48,-3z" fill="#2f2e41" id="svg_39"/>
  <path d="m261.84532,559.71047s83,-10 93,8s3,33 -10,42s-85,50 -85,50l-6,10l-13,-2l-13,-12l6,-11s50,-30 51,-38c0,0 -46,21 -51,17s-61,-23 -52,-34s32,-27 32,-27l48,-3z" opacity="0.1" id="svg_40"/>
  <path d="m250.84532,660.71047s15,-3 12,7s-5,30 0,35s21,27 5,29s-33,-18 -33,-18s-11,-32 -19,-35s-16,-15 -12,-18s28,-22 30,-21s1,12 1,12s8,13 16,9z" fill="#2f2e41" id="svg_41"/>
  <path d="m252.34532,447.21047l37,26s28,-29 28,-46s15,-49 22,-36s-8,44 -8,44l-28,66s-16,3 -25,-4s-34,-21 -34,-21l8,-29z" fill="#ffb9b9" id="svg_42"/>
  <circle cx="215.84532" cy="375.71046" r="28" fill="#ffb9b9" id="svg_43"/>
  <path d="m230.34532,395.21047s-10,26 -6,32s9,6 13,8c2,1 23,9 23,15a23.864,23.864 0 0 1 -3,11l-3,17l-25,16l-33,-4l-25,-14s-4,-37 7,-43s24,-20 23,-25s-2,-17 -2,-17l31,4z" fill="#ffb9b9" id="svg_44"/>
  <path d="m272.34532,457.21047s-15,15 -15,17s10,11 3,23s-7,42 -7,42l-24,5l-45,-4l-7,-69s18,3 22,6s15,-4 23,-4s31,-4 31,-4l-2,-8l8,-14l13,10z" fill="#6c63ff" id="svg_45"/>
  <path d="m275.84532,563.71047" fill="none" stroke="#ffb9b9" stroke-miterlimit="10" id="svg_46"/>
  <path d="m215.84532,563.71047s101,-45 109,-16s9,99 9,99s5,48 11,53s0,20 0,20l-15,5l-14,-6l-6,-16s-2,-36 -10,-54s-8,-60 -7,-62c0,0 -39,48 -77,45s-43.5,-11.5 -43.5,-11.5s18.5,-56.5 43.5,-56.5z" fill="#2f2e41" id="svg_47"/>
  <path d="m338.84532,704.71047s4,-14 13,-3s50,28 51,30s19,13 -2,28s-49,0 -49,0s-24,-8 -30,-7s-18,-5 -19,-10s1.36221,-48.95582 6.6811,-44.47791s11.3189,16.47791 11.3189,16.47791s20,5 18,-10z" fill="#2f2e41" id="svg_48"/>
  <path d="m249.84532,536.71047s5.5,-0.5 4.5,12.5c0,0 -34.5,10.5 -40.5,19.5s-32,36 -36,55c0,0 -29,-7 -13,-57l18.81169,-40.78566s11.18831,22.78566 66.18831,10.78566z" fill="#2f2e41" id="svg_49"/>
  <path d="m226.30775,561.01457l-33.96243,-14.8041s-16,-33 -16,-49a246.60333,246.60333 0 0 0 -2.12511,-27.522a35.52824,35.52824 0 0 1 11.56632,-31.14353c3.5315,-3.08838 7.49634,-5.33447 11.55884,-5.33447c0,0 12,22 10,42s3,50 3,50l45.18631,24.18422" fill="#ffb9b9" id="svg_50"/>
  <path d="m226.30775,561.01457l-33.96243,-14.8041s-16,-33 -16,-49c0,-8.33384 35,-33 33,-13s1,41 1,41l45.18631,24.18422" opacity="0.1" id="svg_51"/>
  <path d="m210.34532,482.21047l-3.18816,13.5l-17.81184,8.5l-15,0l-7,-32s12.35922,-2.614 18.67961,0.693s21.1626,4.09835 21.1626,4.09835l3.15779,5.20865z" fill="#6c63ff" id="svg_52"/>
  <path d="m226.93553,342.19862c-5.42529,-1.37518 -18.28906,-1.33722 -20.17139,-1.33722a34.53143,34.53143 0 0 0 -34.53149,34.53144l-13,48.46856l25.3042,0l4.6958,-18l6.66675,18l12.73828,0l1.095,-10.81653l4.31128,10.81653l14.18872,0c-10.62647,-24.04406 -16.2793,-45.96063 -2.31812,-59.48785c9.42749,1.28412 17.37866,-1.241 18.67432,-6.35223c1.49265,-5.88892 -6.41095,-12.97297 -17.65335,-15.8227z" fill="#2f2e41" id="svg_53"/>
 </g>
</svg>