<svg width="303" height="316" viewBox="0 0 303 316" fill="none" xmlns="http://www.w3.org/2000/svg">
<path d="M11 150.489C11 73.4512 73.4512 11 150.489 11C227.526 11 305.288 64.2683 289.977 150.489C276.524 226.252 197.929 227.196 166.774 226.252C68.7781 221.72 52.5813 155.643 52.5813 135.817C52.5813 106.433 70.9909 94.9065 94.3571 93.6873C100.761 93.6873 106.829 95.1406 112.253 97.7379M11 150.489C11 180.973 20.779 209.174 37.371 232.124M11 150.489C11 184.935 23.9748 213.11 37.371 232.124M252.45 135.817C252.45 174.917 191.911 190.494 129.955 158.631M252.45 135.817C252.45 126.533 249.892 117.95 245.351 110.987M252.45 135.817C252.004 125.213 249.285 117.111 245.351 110.987M213.312 93.6873C224.445 93.6873 233.947 98.0793 240.8 105.239M213.312 93.6873C210.598 93.6873 207.944 93.9483 205.375 94.4468M213.312 93.6873C210.912 93.4726 208.102 93.8349 205.375 94.4468M213.312 93.6873C220.977 93.6873 232.293 96.4712 240.8 105.239M240.8 105.239C242.482 106.996 244.004 108.92 245.351 110.987M240.8 105.239C242.436 106.926 243.969 108.834 245.351 110.987M112.253 97.7379C114.294 76.3905 132.131 59.7002 153.835 59.7002M112.253 97.7379C113.487 85.6487 123.529 61.1164 153.835 59.7002M153.835 59.7002C161.411 59.7002 168.517 61.7343 174.643 65.2905M153.835 59.7002C162.273 60.1564 169.123 62.2459 174.643 65.2905M195.416 97.7379C198.541 96.2413 201.881 95.1245 205.375 94.4468M195.416 97.7379C194.088 83.8429 186.067 71.921 174.643 65.2905M195.416 97.7379C194.859 88.9802 189.688 73.5882 174.643 65.2905M195.416 97.7379C197.496 96.8004 201.345 95.3511 205.375 94.4468M57.78 254.713L34.3661 298.474C54.546 292.81 101.986 284.313 118.98 272.63M57.78 254.713C50.1877 247.954 43.3387 240.379 37.371 232.124M57.78 254.713C52.2445 250.279 44.7439 242.589 37.371 232.124" stroke="#9B9BFF" stroke-width="21.2419" stroke-linecap="round"/>
</svg>
