<svg width="872" height="260" viewBox="0 0 872 260" fill="none" xmlns="http://www.w3.org/2000/svg">
<path d="M9 124.28C9 60.9402 60.3469 9.59326 123.687 9.59326C187.026 9.59326 250.961 53.3901 238.373 124.28C227.312 186.572 162.692 187.348 137.076 186.572C56.5047 182.846 43.1878 128.518 43.1878 112.217C43.1878 88.0572 58.3241 78.5805 77.5356 77.5782C82.801 77.5782 87.7897 78.773 92.2497 80.9085M9 124.28C9 149.344 17.0402 172.53 30.6821 191.4M9 124.28C9 152.601 19.6678 175.767 30.6821 191.4M207.518 112.217C207.518 144.365 157.743 157.172 106.804 130.975M207.518 112.217C207.518 104.583 205.415 97.5264 201.682 91.8015M207.518 112.217C207.152 103.498 204.916 96.837 201.682 91.8015M175.339 77.5782C184.493 77.5782 192.306 81.1893 197.94 87.0759M175.339 77.5782C173.108 77.5782 170.926 77.7928 168.813 78.2026M175.339 77.5782C173.366 77.4016 171.056 77.6995 168.813 78.2026M175.339 77.5782C181.641 77.5782 190.946 79.867 197.94 87.0759M197.94 87.0759C199.322 88.5206 200.574 90.1024 201.682 91.8015M197.94 87.0759C199.285 88.4627 200.545 90.0317 201.682 91.8015M92.2497 80.9085C93.9272 63.3568 108.593 49.6342 126.437 49.6342M92.2497 80.9085C93.2636 70.9689 101.521 50.7986 126.437 49.6342M126.437 49.6342C132.667 49.6342 138.509 51.3066 143.546 54.2305M126.437 49.6342C133.376 50.0093 139.008 51.7273 143.546 54.2305M160.625 80.9085C163.195 79.678 165.941 78.7598 168.813 78.2026M160.625 80.9085C159.533 69.4842 152.939 59.6821 143.546 54.2305M160.625 80.9085C160.167 73.708 155.916 61.0528 143.546 54.2305M160.625 80.9085C162.335 80.1377 165.5 78.9461 168.813 78.2026M47.4622 209.972L28.2115 245.952C44.8032 241.295 83.8083 234.309 97.7802 224.703M47.4622 209.972C41.2198 204.415 35.5886 198.187 30.6821 191.4M47.4622 209.972C42.9109 206.327 36.744 200.004 30.6821 191.4" stroke="#9B9BFF" stroke-width="17.465" stroke-linecap="round"/>
<mask id="path-2-outside-1_55_5" maskUnits="userSpaceOnUse" x="310.262" y="57" width="558" height="117" fill="black">
<rect fill="white" x="310.262" y="57" width="558" height="117"/>
<path d="M326.36 113.24C326.36 121.577 327.39 128.933 329.45 135.309C331.607 141.684 334.452 147.079 337.983 151.492C341.514 155.808 345.633 159.094 350.341 161.35C355.147 163.605 360.198 164.733 365.495 164.733C376.774 164.733 385.504 160.859 391.683 153.111C397.96 145.362 401.099 133.739 401.099 118.242C401.099 110.69 400.167 103.873 398.303 97.7923C396.44 91.6131 393.792 86.3657 390.359 82.0501C387.024 77.6364 382.954 74.2525 378.148 71.8986C373.44 69.5446 368.143 68.3676 362.258 68.3676C357.55 68.3676 352.989 69.2503 348.576 71.0158C344.26 72.7813 340.435 75.5276 337.1 79.2547C333.863 82.8838 331.264 87.5427 329.303 93.2314C327.341 98.8221 326.36 105.492 326.36 113.24ZM313.266 117.948C313.266 109.611 314.688 102.01 317.533 95.144C320.475 88.1802 324.349 82.1972 329.155 77.195C334.06 72.1928 339.699 68.3186 346.075 65.5722C352.548 62.8259 359.365 61.4528 366.525 61.4528C374.273 61.4528 381.09 62.7769 386.975 65.4251C392.958 68.0733 397.96 71.7514 401.982 76.4594C406.003 81.1673 409.043 86.709 411.103 93.0843C413.163 99.3616 414.193 106.178 414.193 113.534C414.193 121.675 413.016 129.277 410.662 136.339C408.308 143.401 404.875 149.531 400.363 154.729C395.851 159.927 390.31 164.047 383.738 167.087C377.265 170.128 369.909 171.648 361.67 171.648C355.098 171.648 348.87 170.422 342.985 167.97C337.198 165.518 332.098 161.987 327.684 157.377C323.271 152.669 319.74 147.03 317.091 140.458C314.541 133.788 313.266 126.285 313.266 117.948ZM453.226 69.1032C452.344 70.6725 450.971 72.3399 449.107 74.1054C447.243 75.7728 445.576 76.9498 444.105 77.6364C442.634 76.9498 440.966 75.7728 439.103 74.1054C437.239 72.3399 435.817 70.6725 434.836 69.1032C435.817 67.4358 437.239 65.7194 439.103 63.9539C440.966 62.1884 442.634 60.9133 444.105 60.1287C445.576 60.9133 447.243 62.1884 449.107 63.9539C451.069 65.7194 452.442 67.4358 453.226 69.1032ZM437.926 94.7027C439.593 93.8199 441.408 93.1824 443.369 92.7901C445.429 92.3977 447.489 92.2016 449.548 92.2016V167.823C448.175 168.608 446.361 169.147 444.105 169.441C441.947 169.834 439.887 170.03 437.926 170.03V94.7027ZM471.24 128.982C471.436 126.923 472.025 124.912 473.005 122.95C473.986 120.891 475.163 119.861 476.536 119.861H513.759C513.562 122.411 512.974 124.569 511.993 126.334C511.012 128.1 509.835 128.982 508.462 128.982H471.24ZM526.025 146.637C527.006 145.166 528.624 143.793 530.88 142.518C533.136 141.243 535.343 140.556 537.501 140.458C537.795 143.204 538.579 146 539.855 148.844C541.13 151.59 542.944 154.091 545.298 156.347C547.75 158.505 550.742 160.32 554.273 161.791C557.804 163.164 562.021 163.851 566.925 163.851C574.085 163.851 579.774 162.036 583.992 158.407C588.209 154.68 590.318 149.825 590.318 143.842C590.318 138.153 588.847 133.445 585.904 129.718C582.962 125.991 577.616 123.147 569.868 121.185L556.038 117.654C552.507 116.771 549.172 115.741 546.034 114.564C542.895 113.387 540.149 111.867 537.795 110.004C535.441 108.042 533.577 105.688 532.204 102.942C530.929 100.097 530.292 96.6643 530.292 92.6429C530.292 88.6216 531.272 84.7473 533.234 81.0202C535.196 77.2931 537.893 74.0073 541.326 71.1629C544.857 68.2205 548.927 65.8665 553.537 64.101C558.245 62.3355 563.296 61.4528 568.691 61.4528C574.085 61.4528 578.695 62.1394 582.52 63.5125C586.346 64.8857 589.435 66.5531 591.789 68.5147C594.143 70.4764 595.86 72.6342 596.938 74.9881C598.115 77.244 598.802 79.2547 598.998 81.0202C598.312 82.3934 597.037 83.6684 595.173 84.8454C593.309 85.9243 591.152 86.6109 588.7 86.9051C588.307 84.7473 587.572 82.6386 586.493 80.5788C585.414 78.421 583.844 76.5084 581.785 74.841C579.823 73.0755 577.371 71.6533 574.429 70.5744C571.486 69.4955 568.004 68.9561 563.983 68.9561C557.313 68.9561 551.968 70.7216 547.946 74.2525C543.925 77.6854 541.914 82.2462 541.914 87.935C541.914 91.1717 542.405 93.869 543.386 96.0268C544.366 98.0865 545.739 99.852 547.505 101.323C549.27 102.696 551.33 103.824 553.684 104.707C556.136 105.59 558.784 106.374 561.629 107.061L574.576 110.298C579.97 111.671 584.433 113.338 587.964 115.3C591.593 117.262 594.437 119.419 596.497 121.773C598.557 124.127 599.979 126.727 600.764 129.571C601.646 132.317 602.088 135.162 602.088 138.104C602.088 142.518 601.156 146.735 599.292 150.757C597.429 154.778 594.732 158.358 591.201 161.497C587.67 164.537 583.403 166.989 578.401 168.853C573.497 170.618 567.955 171.501 561.776 171.501C555.793 171.501 550.595 170.716 546.181 169.147C541.767 167.578 538.089 165.616 535.147 163.262C532.204 160.81 529.948 158.113 528.379 155.17C526.908 152.228 526.123 149.384 526.025 146.637ZM688.425 163.556C688.131 164.047 687.64 164.635 686.954 165.322C686.365 166.008 685.679 166.695 684.894 167.382C684.109 167.97 683.227 168.51 682.246 169C681.363 169.49 680.529 169.834 679.745 170.03C676.606 169.834 673.958 168.657 671.8 166.499C669.642 164.243 668.465 161.301 668.269 157.671C667.484 159.143 666.307 160.712 664.738 162.379C663.169 163.949 661.256 165.42 659 166.793C656.843 168.068 654.341 169.098 651.497 169.883C648.653 170.765 645.563 171.207 642.228 171.207C635.264 171.207 629.723 169.441 625.603 165.91C621.582 162.379 619.571 157.671 619.571 151.787C619.571 145.705 621.876 140.605 626.486 136.486C631.096 132.366 638.992 129.326 650.173 127.364L667.681 124.274V118.537C667.681 111.475 666.013 106.08 662.678 102.353C659.442 98.626 654.587 96.7624 648.113 96.7624C644.092 96.7624 640.659 97.7923 637.815 99.852C635.068 101.814 633.695 104.756 633.695 108.679C633.695 110.445 634.284 112.014 635.461 113.387C634.578 114.564 633.156 115.643 631.194 116.624C629.232 117.605 627.222 118.193 625.162 118.39C624.672 117.899 624.083 117.164 623.396 116.183C622.71 115.202 622.367 113.878 622.367 112.21C622.367 109.17 623.249 106.325 625.015 103.677C626.78 101.029 629.085 98.7731 631.93 96.9095C634.774 94.9479 638.06 93.4276 641.787 92.3487C645.514 91.2698 649.388 90.7304 653.41 90.7304C662.826 90.7304 669.495 92.8882 673.418 97.2038C677.342 101.421 679.303 107.355 679.303 115.006V151.934C679.303 155.955 680.186 158.75 681.952 160.32C683.717 161.791 685.777 162.674 688.131 162.968L688.425 163.556ZM646.936 163.409C652.036 163.409 656.352 162.232 659.883 159.878C663.512 157.524 666.111 154.484 667.681 150.757V129.571L647.966 133.102C642.67 134.083 638.599 135.75 635.755 138.104C633.009 140.458 631.635 143.842 631.635 148.256C631.635 153.16 633.107 156.936 636.049 159.584C639.09 162.134 642.719 163.409 646.936 163.409ZM761.892 123.097C761.892 114.761 760.176 108.679 756.743 104.854C753.31 100.931 748.455 98.9693 742.178 98.9693C739.922 98.9693 737.666 99.4106 735.41 100.293C733.252 101.078 731.144 102.157 729.084 103.53C727.122 104.903 725.259 106.522 723.493 108.385C721.728 110.151 720.158 112.014 718.785 113.976V167.823C717.412 168.608 715.598 169.147 713.342 169.441C711.184 169.834 709.124 170.03 707.163 170.03V94.7027C710.399 93.0353 714.028 92.2016 718.05 92.2016V106.767C719.325 105.099 720.943 103.334 722.905 101.47C724.965 99.5087 727.22 97.7432 729.672 96.1739C732.223 94.6046 734.969 93.3295 737.911 92.3487C740.952 91.2698 744.189 90.7304 747.622 90.7304C755.566 90.7304 761.843 93.1334 766.453 97.9394C771.161 102.745 773.515 109.611 773.515 118.537V167.823C772.142 168.608 770.328 169.147 768.072 169.441C765.914 169.834 763.854 170.03 761.892 170.03V123.097ZM865.146 163.556C864.851 164.047 864.361 164.635 863.674 165.322C863.086 166.008 862.399 166.695 861.615 167.382C860.83 167.97 859.947 168.51 858.966 169C858.084 169.49 857.25 169.834 856.465 170.03C853.327 169.834 850.678 168.657 848.521 166.499C846.363 164.243 845.186 161.301 844.99 157.671C844.205 159.143 843.028 160.712 841.459 162.379C839.889 163.949 837.977 165.42 835.721 166.793C833.563 168.068 831.062 169.098 828.218 169.883C825.373 170.765 822.284 171.207 818.949 171.207C811.985 171.207 806.443 169.441 802.324 165.91C798.302 162.379 796.292 157.671 796.292 151.787C796.292 145.705 798.597 140.605 803.207 136.486C807.816 132.366 815.712 129.326 826.893 127.364L844.401 124.274V118.537C844.401 111.475 842.734 106.08 839.399 102.353C836.162 98.626 831.307 96.7624 824.834 96.7624C820.812 96.7624 817.379 97.7923 814.535 99.852C811.789 101.814 810.416 104.756 810.416 108.679C810.416 110.445 811.004 112.014 812.181 113.387C811.298 114.564 809.876 115.643 807.915 116.624C805.953 117.605 803.942 118.193 801.882 118.39C801.392 117.899 800.804 117.164 800.117 116.183C799.43 115.202 799.087 113.878 799.087 112.21C799.087 109.17 799.97 106.325 801.735 103.677C803.501 101.029 805.806 98.7731 808.65 96.9095C811.495 94.9479 814.78 93.4276 818.507 92.3487C822.235 91.2698 826.109 90.7304 830.13 90.7304C839.546 90.7304 846.216 92.8882 850.139 97.2038C854.062 101.421 856.024 107.355 856.024 115.006V151.934C856.024 155.955 856.907 158.75 858.672 160.32C860.438 161.791 862.497 162.674 864.851 162.968L865.146 163.556ZM823.657 163.409C828.757 163.409 833.073 162.232 836.604 159.878C840.233 157.524 842.832 154.484 844.401 150.757V129.571L824.687 133.102C819.39 134.083 815.32 135.75 812.475 138.104C809.729 140.458 808.356 143.842 808.356 148.256C808.356 153.16 809.827 156.936 812.77 159.584C815.81 162.134 819.439 163.409 823.657 163.409Z"/>
</mask>
<path d="M326.36 113.24C326.36 121.577 327.39 128.933 329.45 135.309C331.607 141.684 334.452 147.079 337.983 151.492C341.514 155.808 345.633 159.094 350.341 161.35C355.147 163.605 360.198 164.733 365.495 164.733C376.774 164.733 385.504 160.859 391.683 153.111C397.96 145.362 401.099 133.739 401.099 118.242C401.099 110.69 400.167 103.873 398.303 97.7923C396.44 91.6131 393.792 86.3657 390.359 82.0501C387.024 77.6364 382.954 74.2525 378.148 71.8986C373.44 69.5446 368.143 68.3676 362.258 68.3676C357.55 68.3676 352.989 69.2503 348.576 71.0158C344.26 72.7813 340.435 75.5276 337.1 79.2547C333.863 82.8838 331.264 87.5427 329.303 93.2314C327.341 98.8221 326.36 105.492 326.36 113.24ZM313.266 117.948C313.266 109.611 314.688 102.01 317.533 95.144C320.475 88.1802 324.349 82.1972 329.155 77.195C334.06 72.1928 339.699 68.3186 346.075 65.5722C352.548 62.8259 359.365 61.4528 366.525 61.4528C374.273 61.4528 381.09 62.7769 386.975 65.4251C392.958 68.0733 397.96 71.7514 401.982 76.4594C406.003 81.1673 409.043 86.709 411.103 93.0843C413.163 99.3616 414.193 106.178 414.193 113.534C414.193 121.675 413.016 129.277 410.662 136.339C408.308 143.401 404.875 149.531 400.363 154.729C395.851 159.927 390.31 164.047 383.738 167.087C377.265 170.128 369.909 171.648 361.67 171.648C355.098 171.648 348.87 170.422 342.985 167.97C337.198 165.518 332.098 161.987 327.684 157.377C323.271 152.669 319.74 147.03 317.091 140.458C314.541 133.788 313.266 126.285 313.266 117.948ZM453.226 69.1032C452.344 70.6725 450.971 72.3399 449.107 74.1054C447.243 75.7728 445.576 76.9498 444.105 77.6364C442.634 76.9498 440.966 75.7728 439.103 74.1054C437.239 72.3399 435.817 70.6725 434.836 69.1032C435.817 67.4358 437.239 65.7194 439.103 63.9539C440.966 62.1884 442.634 60.9133 444.105 60.1287C445.576 60.9133 447.243 62.1884 449.107 63.9539C451.069 65.7194 452.442 67.4358 453.226 69.1032ZM437.926 94.7027C439.593 93.8199 441.408 93.1824 443.369 92.7901C445.429 92.3977 447.489 92.2016 449.548 92.2016V167.823C448.175 168.608 446.361 169.147 444.105 169.441C441.947 169.834 439.887 170.03 437.926 170.03V94.7027ZM471.24 128.982C471.436 126.923 472.025 124.912 473.005 122.95C473.986 120.891 475.163 119.861 476.536 119.861H513.759C513.562 122.411 512.974 124.569 511.993 126.334C511.012 128.1 509.835 128.982 508.462 128.982H471.24ZM526.025 146.637C527.006 145.166 528.624 143.793 530.88 142.518C533.136 141.243 535.343 140.556 537.501 140.458C537.795 143.204 538.579 146 539.855 148.844C541.13 151.59 542.944 154.091 545.298 156.347C547.75 158.505 550.742 160.32 554.273 161.791C557.804 163.164 562.021 163.851 566.925 163.851C574.085 163.851 579.774 162.036 583.992 158.407C588.209 154.68 590.318 149.825 590.318 143.842C590.318 138.153 588.847 133.445 585.904 129.718C582.962 125.991 577.616 123.147 569.868 121.185L556.038 117.654C552.507 116.771 549.172 115.741 546.034 114.564C542.895 113.387 540.149 111.867 537.795 110.004C535.441 108.042 533.577 105.688 532.204 102.942C530.929 100.097 530.292 96.6643 530.292 92.6429C530.292 88.6216 531.272 84.7473 533.234 81.0202C535.196 77.2931 537.893 74.0073 541.326 71.1629C544.857 68.2205 548.927 65.8665 553.537 64.101C558.245 62.3355 563.296 61.4528 568.691 61.4528C574.085 61.4528 578.695 62.1394 582.52 63.5125C586.346 64.8857 589.435 66.5531 591.789 68.5147C594.143 70.4764 595.86 72.6342 596.938 74.9881C598.115 77.244 598.802 79.2547 598.998 81.0202C598.312 82.3934 597.037 83.6684 595.173 84.8454C593.309 85.9243 591.152 86.6109 588.7 86.9051C588.307 84.7473 587.572 82.6386 586.493 80.5788C585.414 78.421 583.844 76.5084 581.785 74.841C579.823 73.0755 577.371 71.6533 574.429 70.5744C571.486 69.4955 568.004 68.9561 563.983 68.9561C557.313 68.9561 551.968 70.7216 547.946 74.2525C543.925 77.6854 541.914 82.2462 541.914 87.935C541.914 91.1717 542.405 93.869 543.386 96.0268C544.366 98.0865 545.739 99.852 547.505 101.323C549.27 102.696 551.33 103.824 553.684 104.707C556.136 105.59 558.784 106.374 561.629 107.061L574.576 110.298C579.97 111.671 584.433 113.338 587.964 115.3C591.593 117.262 594.437 119.419 596.497 121.773C598.557 124.127 599.979 126.727 600.764 129.571C601.646 132.317 602.088 135.162 602.088 138.104C602.088 142.518 601.156 146.735 599.292 150.757C597.429 154.778 594.732 158.358 591.201 161.497C587.67 164.537 583.403 166.989 578.401 168.853C573.497 170.618 567.955 171.501 561.776 171.501C555.793 171.501 550.595 170.716 546.181 169.147C541.767 167.578 538.089 165.616 535.147 163.262C532.204 160.81 529.948 158.113 528.379 155.17C526.908 152.228 526.123 149.384 526.025 146.637ZM688.425 163.556C688.131 164.047 687.64 164.635 686.954 165.322C686.365 166.008 685.679 166.695 684.894 167.382C684.109 167.97 683.227 168.51 682.246 169C681.363 169.49 680.529 169.834 679.745 170.03C676.606 169.834 673.958 168.657 671.8 166.499C669.642 164.243 668.465 161.301 668.269 157.671C667.484 159.143 666.307 160.712 664.738 162.379C663.169 163.949 661.256 165.42 659 166.793C656.843 168.068 654.341 169.098 651.497 169.883C648.653 170.765 645.563 171.207 642.228 171.207C635.264 171.207 629.723 169.441 625.603 165.91C621.582 162.379 619.571 157.671 619.571 151.787C619.571 145.705 621.876 140.605 626.486 136.486C631.096 132.366 638.992 129.326 650.173 127.364L667.681 124.274V118.537C667.681 111.475 666.013 106.08 662.678 102.353C659.442 98.626 654.587 96.7624 648.113 96.7624C644.092 96.7624 640.659 97.7923 637.815 99.852C635.068 101.814 633.695 104.756 633.695 108.679C633.695 110.445 634.284 112.014 635.461 113.387C634.578 114.564 633.156 115.643 631.194 116.624C629.232 117.605 627.222 118.193 625.162 118.39C624.672 117.899 624.083 117.164 623.396 116.183C622.71 115.202 622.367 113.878 622.367 112.21C622.367 109.17 623.249 106.325 625.015 103.677C626.78 101.029 629.085 98.7731 631.93 96.9095C634.774 94.9479 638.06 93.4276 641.787 92.3487C645.514 91.2698 649.388 90.7304 653.41 90.7304C662.826 90.7304 669.495 92.8882 673.418 97.2038C677.342 101.421 679.303 107.355 679.303 115.006V151.934C679.303 155.955 680.186 158.75 681.952 160.32C683.717 161.791 685.777 162.674 688.131 162.968L688.425 163.556ZM646.936 163.409C652.036 163.409 656.352 162.232 659.883 159.878C663.512 157.524 666.111 154.484 667.681 150.757V129.571L647.966 133.102C642.67 134.083 638.599 135.75 635.755 138.104C633.009 140.458 631.635 143.842 631.635 148.256C631.635 153.16 633.107 156.936 636.049 159.584C639.09 162.134 642.719 163.409 646.936 163.409ZM761.892 123.097C761.892 114.761 760.176 108.679 756.743 104.854C753.31 100.931 748.455 98.9693 742.178 98.9693C739.922 98.9693 737.666 99.4106 735.41 100.293C733.252 101.078 731.144 102.157 729.084 103.53C727.122 104.903 725.259 106.522 723.493 108.385C721.728 110.151 720.158 112.014 718.785 113.976V167.823C717.412 168.608 715.598 169.147 713.342 169.441C711.184 169.834 709.124 170.03 707.163 170.03V94.7027C710.399 93.0353 714.028 92.2016 718.05 92.2016V106.767C719.325 105.099 720.943 103.334 722.905 101.47C724.965 99.5087 727.22 97.7432 729.672 96.1739C732.223 94.6046 734.969 93.3295 737.911 92.3487C740.952 91.2698 744.189 90.7304 747.622 90.7304C755.566 90.7304 761.843 93.1334 766.453 97.9394C771.161 102.745 773.515 109.611 773.515 118.537V167.823C772.142 168.608 770.328 169.147 768.072 169.441C765.914 169.834 763.854 170.03 761.892 170.03V123.097ZM865.146 163.556C864.851 164.047 864.361 164.635 863.674 165.322C863.086 166.008 862.399 166.695 861.615 167.382C860.83 167.97 859.947 168.51 858.966 169C858.084 169.49 857.25 169.834 856.465 170.03C853.327 169.834 850.678 168.657 848.521 166.499C846.363 164.243 845.186 161.301 844.99 157.671C844.205 159.143 843.028 160.712 841.459 162.379C839.889 163.949 837.977 165.42 835.721 166.793C833.563 168.068 831.062 169.098 828.218 169.883C825.373 170.765 822.284 171.207 818.949 171.207C811.985 171.207 806.443 169.441 802.324 165.91C798.302 162.379 796.292 157.671 796.292 151.787C796.292 145.705 798.597 140.605 803.207 136.486C807.816 132.366 815.712 129.326 826.893 127.364L844.401 124.274V118.537C844.401 111.475 842.734 106.08 839.399 102.353C836.162 98.626 831.307 96.7624 824.834 96.7624C820.812 96.7624 817.379 97.7923 814.535 99.852C811.789 101.814 810.416 104.756 810.416 108.679C810.416 110.445 811.004 112.014 812.181 113.387C811.298 114.564 809.876 115.643 807.915 116.624C805.953 117.605 803.942 118.193 801.882 118.39C801.392 117.899 800.804 117.164 800.117 116.183C799.43 115.202 799.087 113.878 799.087 112.21C799.087 109.17 799.97 106.325 801.735 103.677C803.501 101.029 805.806 98.7731 808.65 96.9095C811.495 94.9479 814.78 93.4276 818.507 92.3487C822.235 91.2698 826.109 90.7304 830.13 90.7304C839.546 90.7304 846.216 92.8882 850.139 97.2038C854.062 101.421 856.024 107.355 856.024 115.006V151.934C856.024 155.955 856.907 158.75 858.672 160.32C860.438 161.791 862.497 162.674 864.851 162.968L865.146 163.556ZM823.657 163.409C828.757 163.409 833.073 162.232 836.604 159.878C840.233 157.524 842.832 154.484 844.401 150.757V129.571L824.687 133.102C819.39 134.083 815.32 135.75 812.475 138.104C809.729 140.458 808.356 143.842 808.356 148.256C808.356 153.16 809.827 156.936 812.77 159.584C815.81 162.134 819.439 163.409 823.657 163.409Z" fill="#9B9BFF"/>
<path d="M329.45 135.309L327.394 135.973L327.398 135.987L327.403 136.001L329.45 135.309ZM337.983 151.492L336.296 152.842L336.303 152.851L336.311 152.86L337.983 151.492ZM350.341 161.35L349.408 163.298L349.415 163.302L349.423 163.305L350.341 161.35ZM391.683 153.111L390.004 151.751L389.999 151.757L389.994 151.764L391.683 153.111ZM398.303 97.7923L396.235 98.4161L396.238 98.4253L398.303 97.7923ZM390.359 82.0501L388.635 83.3525L388.651 83.374L388.668 83.3951L390.359 82.0501ZM378.148 71.8986L377.181 73.831L377.189 73.835L377.197 73.8389L378.148 71.8986ZM348.576 71.0158L347.773 69.0098L347.765 69.0129L347.758 69.0161L348.576 71.0158ZM337.1 79.2547L335.49 77.8141L335.488 77.8166L337.1 79.2547ZM329.303 93.2314L331.341 93.9468L331.345 93.9358L329.303 93.2314ZM317.533 95.144L315.542 94.3031L315.54 94.3101L315.537 94.3171L317.533 95.144ZM329.155 77.195L327.613 75.6824L327.605 75.6902L327.597 75.6981L329.155 77.195ZM346.075 65.5722L345.231 63.5832L345.22 63.5879L346.075 65.5722ZM386.975 65.4251L386.088 67.3954L386.1 67.4008L386.975 65.4251ZM401.982 76.4594L400.339 77.8627L400.339 77.8627L401.982 76.4594ZM411.103 93.0843L409.047 93.7486L409.05 93.7579L411.103 93.0843ZM410.662 136.339L408.612 135.655L408.612 135.655L410.662 136.339ZM400.363 154.729L401.995 156.145L401.995 156.145L400.363 154.729ZM383.738 167.087L382.831 165.126L382.82 165.132L383.738 167.087ZM342.985 167.97L342.142 169.96L342.154 169.965L342.985 167.97ZM327.684 157.377L326.108 158.855L326.116 158.863L326.124 158.871L327.684 157.377ZM317.091 140.458L315.073 141.23L315.08 141.248L315.087 141.266L317.091 140.458ZM324.2 113.24C324.2 121.75 325.25 129.338 327.394 135.973L331.506 134.645C329.53 128.529 328.521 121.404 328.521 113.24H324.2ZM327.403 136.001C329.627 142.571 332.581 148.198 336.296 152.842L339.67 150.143C336.323 145.959 333.588 140.797 331.496 134.616L327.403 136.001ZM336.311 152.86C340.028 157.404 344.395 160.896 349.408 163.298L351.275 159.401C346.872 157.291 342.999 154.212 339.655 150.124L336.311 152.86ZM349.423 163.305C354.516 165.696 359.88 166.894 365.495 166.894V162.573C360.517 162.573 355.779 161.515 351.259 159.394L349.423 163.305ZM365.495 166.894C377.329 166.894 386.723 162.796 393.372 154.458L389.994 151.764C384.284 158.923 376.219 162.573 365.495 162.573V166.894ZM393.362 154.471C400.082 146.175 403.259 133.975 403.259 118.242H398.938C398.938 133.504 395.838 144.549 390.004 151.751L393.362 154.471ZM403.259 118.242C403.259 110.515 402.306 103.48 400.369 97.1592L396.238 98.4253C398.028 104.267 398.938 110.866 398.938 118.242H403.259ZM400.372 97.1684C398.443 90.771 395.679 85.2682 392.05 80.705L388.668 83.3951C391.904 87.4632 394.437 92.4551 396.235 98.4161L400.372 97.1684ZM392.083 80.7476C388.551 76.073 384.219 72.4663 379.098 69.9582L377.197 73.8389C381.688 76.0387 385.497 79.1998 388.635 83.3525L392.083 80.7476ZM379.114 69.9661C374.072 67.4452 368.439 66.207 362.258 66.207V70.5282C367.848 70.5282 372.807 71.644 377.181 73.831L379.114 69.9661ZM362.258 66.207C357.273 66.207 352.44 67.1432 347.773 69.0098L349.378 73.0219C353.539 71.3575 357.828 70.5282 362.258 70.5282V66.207ZM347.758 69.0161C343.117 70.9144 339.027 73.8611 335.49 77.8141L338.71 80.6954C341.843 77.1941 345.403 74.6482 349.394 73.0155L347.758 69.0161ZM335.488 77.8166C332.021 81.7036 329.293 86.63 327.26 92.5271L331.345 93.9358C333.235 88.4554 335.706 84.064 338.713 80.6928L335.488 77.8166ZM327.264 92.5161C325.201 98.3951 324.2 105.319 324.2 113.24H328.521C328.521 105.665 329.481 99.2491 331.341 93.9468L327.264 92.5161ZM315.427 117.948C315.427 109.86 316.805 102.544 319.529 95.971L315.537 94.3171C312.571 101.475 311.106 109.362 311.106 117.948H315.427ZM319.523 95.985C322.372 89.2425 326.106 83.4873 330.713 78.6919L327.597 75.6981C322.593 80.9071 318.578 87.1179 315.542 94.3031L319.523 95.985ZM330.698 78.7076C335.408 73.9039 340.814 70.1908 346.929 67.5566L345.22 63.5879C338.584 66.4463 332.711 70.4817 327.613 75.6824L330.698 78.7076ZM346.918 67.5613C353.12 64.9303 359.649 63.6134 366.525 63.6134V59.2922C359.08 59.2922 351.976 60.7216 345.231 63.5832L346.918 67.5613ZM366.525 63.6134C374.028 63.6134 380.532 64.8952 386.088 67.3954L387.862 63.4548C381.648 60.6586 374.519 59.2922 366.525 59.2922V63.6134ZM386.1 67.4008C391.805 69.9258 396.539 73.4145 400.339 77.8627L403.624 75.0561C399.381 70.0883 394.111 66.2209 387.849 63.4494L386.1 67.4008ZM400.339 77.8627C404.16 82.3367 407.068 87.6219 409.047 93.7486L413.159 92.4201C411.019 85.796 407.846 79.998 403.624 75.0561L400.339 77.8627ZM409.05 93.7579C411.031 99.7946 412.032 106.381 412.032 113.534H416.353C416.353 105.975 415.295 98.9285 413.156 92.4107L409.05 93.7579ZM412.032 113.534C412.032 121.465 410.886 128.833 408.612 135.655L412.712 137.022C415.145 129.72 416.353 121.886 416.353 113.534H412.032ZM408.612 135.655C406.341 142.47 403.042 148.346 398.731 153.313L401.995 156.145C406.708 150.715 410.275 144.331 412.712 137.022L408.612 135.655ZM398.731 153.313C394.43 158.269 389.14 162.207 382.831 165.127L384.645 169.048C391.48 165.886 397.272 161.586 401.995 156.145L398.731 153.313ZM382.82 165.132C376.674 168.018 369.639 169.488 361.67 169.488V173.809C370.178 173.809 377.855 172.238 384.657 169.043L382.82 165.132ZM361.67 169.488C355.374 169.488 349.43 168.315 343.816 165.976L342.154 169.965C348.31 172.53 354.822 173.809 361.67 173.809V169.488ZM343.828 165.981C338.316 163.645 333.459 160.284 329.245 155.883L326.124 158.871C330.737 163.69 336.081 167.391 342.142 169.96L343.828 165.981ZM329.26 155.9C325.047 151.405 321.653 145.998 319.095 139.65L315.087 141.266C317.826 148.061 321.494 153.934 326.108 158.855L329.26 155.9ZM319.109 139.686C316.668 133.301 315.427 126.065 315.427 117.948H311.106C311.106 126.505 312.415 134.276 315.073 141.23L319.109 139.686ZM453.226 69.1032L455.11 70.1625L455.656 69.1914L455.181 68.1832L453.226 69.1032ZM449.107 74.1054L450.548 75.7156L450.571 75.695L450.593 75.6739L449.107 74.1054ZM444.105 77.6364L443.191 79.5943L444.105 80.0206L445.018 79.5943L444.105 77.6364ZM439.103 74.1054L437.617 75.6739L437.639 75.695L437.662 75.7156L439.103 74.1054ZM434.836 69.1032L432.974 68.0077L432.309 69.1372L433.004 70.2483L434.836 69.1032ZM439.103 63.9539L437.617 62.3854L439.103 63.9539ZM444.105 60.1287L445.122 58.2223L444.105 57.68L443.088 58.2223L444.105 60.1287ZM449.107 63.9539L447.621 65.5224L447.641 65.5414L447.662 65.5598L449.107 63.9539ZM437.926 94.7027L436.915 92.7932L435.765 93.4018V94.7027H437.926ZM443.369 92.7901L442.965 90.6676L442.955 90.6695L442.945 90.6714L443.369 92.7901ZM449.548 92.2016H451.709V90.041H449.548V92.2016ZM449.548 167.823L450.62 169.699L451.709 169.077V167.823H449.548ZM444.105 169.441L443.825 167.299L443.772 167.306L443.718 167.316L444.105 169.441ZM437.926 170.03H435.765V172.19H437.926V170.03ZM451.343 68.044C450.601 69.3632 449.388 70.8625 447.621 72.5369L450.593 75.6739C452.553 73.8173 454.086 71.9819 455.11 70.1625L451.343 68.044ZM447.666 72.4952C445.885 74.089 444.397 75.1159 443.191 75.6785L445.018 79.5943C446.755 78.7837 448.602 77.4566 450.548 75.7156L447.666 72.4952ZM445.018 75.6785C443.813 75.1159 442.325 74.089 440.543 72.4952L437.662 75.7156C439.608 77.4566 441.454 78.7837 443.191 79.5943L445.018 75.6785ZM440.589 72.5369C438.811 70.8526 437.523 69.3254 436.668 67.9581L433.004 70.2483C434.111 72.0197 435.667 73.8272 437.617 75.6739L440.589 72.5369ZM436.698 70.1987C437.549 68.7521 438.827 67.1911 440.589 65.5224L437.617 62.3854C435.651 64.2476 434.084 66.1195 432.974 68.0077L436.698 70.1987ZM440.589 65.5224C442.378 63.8266 443.887 62.6936 445.122 62.0351L443.088 58.2223C441.38 59.1331 439.554 60.5502 437.617 62.3854L440.589 65.5224ZM443.088 62.0351C444.323 62.6936 445.831 63.8266 447.621 65.5224L450.593 62.3854C448.656 60.5502 446.829 59.1331 445.122 58.2223L443.088 62.0351ZM447.662 65.5598C449.495 67.2095 450.65 68.7029 451.271 70.0232L455.181 68.1832C454.233 66.1687 452.643 64.2292 450.552 62.3479L447.662 65.5598ZM438.937 96.6122C440.409 95.8329 442.024 95.2626 443.793 94.9087L442.945 90.6714C440.791 91.1023 438.778 91.807 436.915 92.7932L438.937 96.6122ZM443.773 94.9125C445.702 94.5451 447.627 94.3622 449.548 94.3622V90.041C447.351 90.041 445.155 90.2504 442.965 90.6676L443.773 94.9125ZM447.388 92.2016V167.823H451.709V92.2016H447.388ZM448.476 165.947C447.43 166.545 445.915 167.026 443.825 167.299L444.384 171.584C446.807 171.268 448.921 170.67 450.62 169.699L448.476 165.947ZM443.718 167.316C441.673 167.687 439.744 167.869 437.926 167.869V172.19C440.031 172.19 442.221 171.98 444.491 171.567L443.718 167.316ZM440.086 170.03V94.7027H435.765V170.03H440.086ZM471.24 128.982L469.089 128.778L468.864 131.143H471.24V128.982ZM473.005 122.95L474.938 123.917L474.947 123.898L474.956 123.879L473.005 122.95ZM513.759 119.861L515.913 120.026L516.092 117.7H513.759V119.861ZM473.391 129.187C473.56 127.408 474.069 125.655 474.938 123.917L471.073 121.984C469.98 124.17 469.312 126.437 469.089 128.778L473.391 129.187ZM474.956 123.879C475.834 122.036 476.459 122.021 476.536 122.021V117.7C473.867 117.7 472.139 119.745 471.055 122.021L474.956 123.879ZM476.536 122.021H513.759V117.7H476.536V122.021ZM511.604 119.695C511.426 122.015 510.899 123.854 510.104 125.285L513.882 127.383C515.048 125.284 515.699 122.807 515.913 120.026L511.604 119.695ZM510.104 125.285C509.307 126.721 508.714 126.822 508.462 126.822V131.143C510.957 131.143 512.718 129.478 513.882 127.383L510.104 125.285ZM508.462 126.822H471.24V131.143H508.462V126.822ZM526.025 146.637L524.227 145.439L523.841 146.018L523.866 146.714L526.025 146.637ZM530.88 142.518L529.817 140.637L530.88 142.518ZM537.501 140.458L539.649 140.228L539.432 138.207L537.402 138.3L537.501 140.458ZM539.855 148.844L537.883 149.728L537.889 149.741L537.895 149.754L539.855 148.844ZM545.298 156.347L543.803 157.907L543.836 157.939L543.871 157.969L545.298 156.347ZM554.273 161.791L553.442 163.785L553.465 163.795L553.49 163.805L554.273 161.791ZM583.992 158.407L585.401 160.045L585.412 160.036L585.422 160.026L583.992 158.407ZM585.904 129.718L587.6 128.379L587.6 128.379L585.904 129.718ZM569.868 121.185L569.333 123.278L569.337 123.279L569.868 121.185ZM556.038 117.654L556.573 115.56L556.562 115.558L556.038 117.654ZM546.034 114.564L545.275 116.587L545.275 116.587L546.034 114.564ZM537.795 110.004L536.412 111.663L536.432 111.681L536.454 111.698L537.795 110.004ZM532.204 102.942L530.233 103.825L530.251 103.867L530.272 103.908L532.204 102.942ZM533.234 81.0202L531.322 80.0139L531.322 80.0139L533.234 81.0202ZM541.326 71.1629L542.704 72.8266L542.709 72.8227L541.326 71.1629ZM553.537 64.101L552.778 62.078L552.771 62.0806L552.764 62.0833L553.537 64.101ZM582.52 63.5125L581.79 65.5461L582.52 63.5125ZM591.789 68.5147L590.406 70.1745L591.789 68.5147ZM596.938 74.9881L594.974 75.8884L594.997 75.9386L595.023 75.9876L596.938 74.9881ZM598.998 81.0202L600.931 81.9865L601.216 81.4158L601.146 80.7816L598.998 81.0202ZM595.173 84.8454L596.255 86.7152L596.291 86.6944L596.327 86.6722L595.173 84.8454ZM588.7 86.9051L586.574 87.2916L586.938 89.2927L588.957 89.0503L588.7 86.9051ZM586.493 80.5788L584.56 81.5451L584.569 81.5633L584.579 81.5814L586.493 80.5788ZM581.785 74.841L580.339 76.447L580.381 76.4848L580.425 76.5203L581.785 74.841ZM547.946 74.2525L549.349 75.8958L549.361 75.886L549.372 75.8761L547.946 74.2525ZM543.386 96.0268L541.419 96.9209L541.427 96.9383L541.435 96.9557L543.386 96.0268ZM547.505 101.323L546.122 102.983L546.15 103.006L546.178 103.029L547.505 101.323ZM553.684 104.707L552.926 106.73L552.939 106.735L552.952 106.74L553.684 104.707ZM561.629 107.061L562.153 104.965L562.144 104.963L562.136 104.961L561.629 107.061ZM574.576 110.298L575.109 108.204L575.1 108.202L574.576 110.298ZM587.964 115.3L586.915 117.189L586.926 117.195L586.936 117.201L587.964 115.3ZM596.497 121.773L594.871 123.196L594.871 123.196L596.497 121.773ZM600.764 129.571L598.681 130.145L598.693 130.189L598.707 130.232L600.764 129.571ZM591.201 161.497L592.61 163.134L592.623 163.123L592.636 163.112L591.201 161.497ZM578.401 168.853L579.133 170.886L579.144 170.882L579.155 170.878L578.401 168.853ZM546.181 169.147L546.905 167.111L546.181 169.147ZM535.147 163.262L533.763 164.922L533.78 164.936L533.797 164.949L535.147 163.262ZM528.379 155.17L526.446 156.137L526.459 156.162L526.473 156.187L528.379 155.17ZM527.823 147.836C528.549 146.747 529.855 145.579 531.943 144.399L529.817 140.637C527.393 142.007 525.463 143.585 524.227 145.439L527.823 147.836ZM531.943 144.399C533.962 143.258 535.841 142.696 537.599 142.616L537.402 138.3C534.844 138.416 532.31 139.228 529.817 140.637L531.943 144.399ZM535.352 140.688C535.674 143.687 536.527 146.703 537.883 149.728L541.826 147.96C540.632 145.297 539.916 142.721 539.649 140.228L535.352 140.688ZM537.895 149.754C539.292 152.762 541.27 155.48 543.803 157.907L546.793 154.787C544.618 152.703 542.968 150.419 541.814 147.934L537.895 149.754ZM543.871 157.969C546.527 160.307 549.729 162.239 553.442 163.785L555.104 159.797C551.754 158.401 548.973 156.703 546.725 154.725L543.871 157.969ZM553.49 163.805C557.332 165.299 561.828 166.011 566.925 166.011V161.69C562.214 161.69 558.275 161.029 555.056 159.777L553.49 163.805ZM566.925 166.011C574.451 166.011 580.69 164.099 585.401 160.045L582.582 156.769C578.858 159.974 573.72 161.69 566.925 161.69V166.011ZM585.422 160.026C590.136 155.861 592.478 150.4 592.478 143.842H588.157C588.157 149.25 586.282 153.499 582.561 156.788L585.422 160.026ZM592.478 143.842C592.478 137.767 590.9 132.559 587.6 128.379L584.208 131.057C586.793 134.331 588.157 138.539 588.157 143.842H592.478ZM587.6 128.379C584.221 124.099 578.321 121.096 570.398 119.09L569.337 123.279C576.911 125.197 581.702 127.883 584.208 131.057L587.6 128.379ZM570.402 119.091L556.573 115.56L555.504 119.747L569.333 123.278L570.402 119.091ZM556.562 115.558C553.104 114.693 549.848 113.687 546.792 112.541L545.275 116.587C548.497 117.795 551.91 118.849 555.514 119.75L556.562 115.558ZM546.792 112.541C543.84 111.434 541.295 110.019 539.136 108.31L536.454 111.698C539.003 113.716 541.951 115.341 545.275 116.587L546.792 112.541ZM539.178 108.344C537.053 106.573 535.377 104.456 534.137 101.975L530.272 103.908C531.778 106.92 533.828 109.51 536.412 111.663L539.178 108.344ZM534.176 102.058C533.056 99.5596 532.452 96.4445 532.452 92.6429H528.131C528.131 96.8841 528.802 100.635 530.233 103.825L534.176 102.058ZM532.452 92.6429C532.452 88.989 533.34 85.4585 535.146 82.0265L531.322 80.0139C529.205 84.0361 528.131 88.2542 528.131 92.6429H532.452ZM535.146 82.0265C536.967 78.5661 539.478 75.5 542.704 72.8266L539.947 69.4992C536.308 72.5146 533.424 76.0201 531.322 80.0139L535.146 82.0265ZM542.709 72.8227C546.044 70.0432 549.905 67.8055 554.31 66.1187L552.764 62.0833C547.949 63.9274 543.669 66.3978 539.943 69.5031L542.709 72.8227ZM554.296 66.124C558.744 64.456 563.536 63.6134 568.691 63.6134V59.2922C563.056 59.2922 557.746 60.2151 552.778 62.078L554.296 66.124ZM568.691 63.6134C573.913 63.6134 578.262 64.2795 581.79 65.5461L583.25 61.479C579.128 59.9993 574.257 59.2922 568.691 59.2922V63.6134ZM581.79 65.5461C585.451 66.86 588.298 68.4179 590.406 70.1745L593.172 66.8549C590.572 64.6882 587.24 62.9113 583.25 61.479L581.79 65.5461ZM590.406 70.1745C592.557 71.9671 594.052 73.8768 594.974 75.8884L598.903 74.0879C597.667 71.3915 595.729 68.9856 593.172 66.8549L590.406 70.1745ZM595.023 75.9876C596.125 78.1005 596.694 79.8474 596.851 81.2588L601.146 80.7816C600.91 78.662 600.106 76.3876 598.854 73.9887L595.023 75.9876ZM597.066 80.054C596.616 80.9533 595.687 81.9654 594.019 83.0187L596.327 86.6722C598.386 85.3714 600.007 83.8334 600.931 81.9865L597.066 80.054ZM594.09 82.9756C592.515 83.8877 590.646 84.4955 588.442 84.7599L588.957 89.0503C591.657 88.7263 594.104 87.9609 596.255 86.7152L594.09 82.9756ZM590.825 86.5186C590.392 84.1334 589.581 81.8178 588.407 79.5763L584.579 81.5814C585.562 83.4593 586.223 85.3613 586.574 87.2916L590.825 86.5186ZM588.425 79.6126C587.195 77.1527 585.42 75.0039 583.144 73.1617L580.425 76.5203C582.269 78.013 583.632 79.6893 584.56 81.5451L588.425 79.6126ZM583.23 73.2351C581.029 71.2542 578.326 69.7022 575.172 68.5459L573.685 72.603C576.416 73.6045 578.617 74.8969 580.339 76.447L583.23 73.2351ZM575.172 68.5459C571.935 67.3589 568.19 66.7955 563.983 66.7955V71.1167C567.819 71.1167 571.037 71.6322 573.685 72.603L575.172 68.5459ZM563.983 66.7955C556.923 66.7955 551.027 68.6726 546.521 72.629L549.372 75.8761C552.909 72.7705 557.704 71.1167 563.983 71.1167V66.7955ZM546.544 72.6093C542.001 76.4867 539.754 81.6685 539.754 87.935H544.075C544.075 82.824 545.849 78.8841 549.349 75.8958L546.544 72.6093ZM539.754 87.935C539.754 91.3739 540.272 94.3994 541.419 96.9209L545.352 95.1327C544.537 93.3385 544.075 90.9695 544.075 87.935H539.754ZM541.435 96.9557C542.551 99.2993 544.118 101.314 546.122 102.983L548.888 99.6634C547.361 98.3905 546.182 96.8737 545.336 95.0979L541.435 96.9557ZM546.178 103.029C548.136 104.551 550.392 105.78 552.926 106.73L554.443 102.684C552.268 101.869 550.405 100.842 548.831 99.6178L546.178 103.029ZM552.952 106.74C555.486 107.652 558.21 108.459 561.122 109.161L562.136 104.961C559.358 104.29 556.786 103.527 554.416 102.674L552.952 106.74ZM561.105 109.157L574.052 112.394L575.1 108.202L562.153 104.965L561.105 109.157ZM574.043 112.392C579.32 113.735 583.594 115.344 586.915 117.189L589.013 113.411C585.271 111.333 580.621 109.607 575.109 108.204L574.043 112.392ZM586.936 117.201C590.407 119.077 593.025 121.087 594.871 123.196L598.123 120.351C595.849 117.752 592.779 115.446 588.991 113.399L586.936 117.201ZM594.871 123.196C596.73 125.32 597.988 127.633 598.681 130.145L602.846 128.996C601.97 125.82 600.384 122.934 598.123 120.351L594.871 123.196ZM598.707 130.232C599.519 132.76 599.927 135.381 599.927 138.104H604.248C604.248 134.942 603.773 131.874 602.821 128.91L598.707 130.232ZM599.927 138.104C599.927 142.203 599.064 146.11 597.332 149.848L601.253 151.665C603.248 147.36 604.248 142.833 604.248 138.104H599.927ZM597.332 149.848C595.601 153.583 593.089 156.927 589.765 159.882L592.636 163.112C596.374 159.789 599.256 155.973 601.253 151.665L597.332 149.848ZM589.791 159.859C586.48 162.711 582.443 165.041 577.647 166.828L579.155 170.878C584.363 168.937 588.86 166.364 592.61 163.134L589.791 159.859ZM577.669 166.82C573.039 168.487 567.751 169.341 561.776 169.341V173.662C568.159 173.662 573.955 172.75 579.133 170.886L577.669 166.82ZM561.776 169.341C555.974 169.341 551.032 168.579 546.905 167.111L545.457 171.183C550.157 172.854 555.611 173.662 561.776 173.662V169.341ZM546.905 167.111C542.665 165.604 539.212 163.747 536.496 161.575L533.797 164.949C536.966 167.485 540.87 169.552 545.457 171.183L546.905 167.111ZM536.53 161.602C533.77 159.303 531.705 156.816 530.285 154.154L526.473 156.187C528.191 159.41 530.638 162.318 533.763 164.922L536.53 161.602ZM530.311 154.204C528.952 151.485 528.269 148.942 528.184 146.56L523.866 146.714C523.977 149.825 524.864 152.971 526.446 156.137L530.311 154.204ZM688.425 163.556L690.278 164.668L690.888 163.651L690.358 162.59L688.425 163.556ZM686.954 165.322L685.426 163.794L685.367 163.853L685.313 163.916L686.954 165.322ZM684.894 167.382L686.19 169.11L686.256 169.061L686.317 169.008L684.894 167.382ZM682.246 169L681.28 167.068L681.238 167.089L681.197 167.111L682.246 169ZM679.745 170.03L679.61 172.186L679.944 172.207L680.269 172.126L679.745 170.03ZM671.8 166.499L670.239 167.992L670.255 168.01L670.272 168.027L671.8 166.499ZM668.269 157.671L670.427 157.555L670.008 149.819L666.363 156.655L668.269 157.671ZM664.738 162.379L666.266 163.907L666.289 163.884L666.311 163.86L664.738 162.379ZM659 166.793L660.099 168.653L660.112 168.646L660.124 168.639L659 166.793ZM651.497 169.883L650.922 167.8L650.889 167.809L650.857 167.819L651.497 169.883ZM625.603 165.91L624.178 167.534L624.187 167.542L624.197 167.551L625.603 165.91ZM626.486 136.486L625.046 134.875L625.046 134.875L626.486 136.486ZM650.173 127.364L650.546 129.492L650.548 129.492L650.173 127.364ZM667.681 124.274L668.056 126.402L669.841 126.087V124.274H667.681ZM662.678 102.353L661.047 103.77L661.058 103.782L661.068 103.794L662.678 102.353ZM637.815 99.852L639.07 101.61L639.082 101.602L637.815 99.852ZM635.461 113.387L637.189 114.684L638.229 113.297L637.101 111.981L635.461 113.387ZM631.194 116.624L632.16 118.557L632.16 118.557L631.194 116.624ZM625.162 118.39L623.634 119.917L624.354 120.637L625.367 120.54L625.162 118.39ZM623.396 116.183L625.166 114.944L625.166 114.944L623.396 116.183ZM625.015 103.677L623.217 102.479L623.217 102.479L625.015 103.677ZM631.93 96.9095L633.114 98.7168L633.135 98.7027L633.156 98.6882L631.93 96.9095ZM673.418 97.2038L671.82 98.6571L671.828 98.6663L671.836 98.6754L673.418 97.2038ZM681.952 160.32L680.516 161.935L680.542 161.957L680.568 161.98L681.952 160.32ZM688.131 162.968L690.063 162.002L689.546 160.967L688.399 160.824L688.131 162.968ZM659.883 159.878L658.707 158.066L658.696 158.073L658.685 158.081L659.883 159.878ZM667.681 150.757L669.672 151.595L669.841 151.193V150.757H667.681ZM667.681 129.571H669.841V126.989L667.3 127.444L667.681 129.571ZM647.966 133.102L647.585 130.975L647.573 130.977L647.966 133.102ZM635.755 138.104L634.377 136.44L634.363 136.451L634.349 136.464L635.755 138.104ZM636.049 159.584L634.604 161.19L634.632 161.215L634.661 161.24L636.049 159.584ZM686.572 162.445C686.41 162.715 686.061 163.159 685.426 163.794L688.482 166.85C689.219 166.112 689.851 165.379 690.278 164.668L686.572 162.445ZM685.313 163.916C684.801 164.513 684.19 165.127 683.471 165.756L686.317 169.008C687.168 168.263 687.929 167.504 688.594 166.728L685.313 163.916ZM683.598 165.653C682.928 166.155 682.158 166.628 681.28 167.068L683.212 170.932C684.295 170.391 685.291 169.785 686.19 169.11L683.598 165.653ZM681.197 167.111C680.44 167.532 679.783 167.793 679.221 167.934L680.269 172.126C681.276 171.874 682.286 171.449 683.295 170.889L681.197 167.111ZM679.88 167.873C677.249 167.709 675.101 166.744 673.328 164.971L670.272 168.027C672.815 170.569 675.964 171.958 679.61 172.186L679.88 167.873ZM673.361 165.005C671.618 163.183 670.6 160.758 670.427 157.555L666.112 157.788C666.331 161.843 667.667 165.303 670.239 167.992L673.361 165.005ZM666.363 156.655C665.694 157.908 664.648 159.323 663.165 160.899L666.311 163.86C667.967 162.101 669.274 160.378 670.176 158.688L666.363 156.655ZM663.21 160.852C661.783 162.279 660.013 163.648 657.877 164.948L660.124 168.639C662.5 167.192 664.555 165.619 666.266 163.907L663.21 160.852ZM657.901 164.933C655.934 166.096 653.615 167.057 650.922 167.8L652.072 171.966C655.068 171.139 657.751 170.041 660.099 168.653L657.901 164.933ZM650.857 167.819C648.243 168.63 645.372 169.046 642.228 169.046V173.367C645.755 173.367 649.063 172.901 652.137 171.946L650.857 167.819ZM642.228 169.046C635.631 169.046 630.637 167.379 627.009 164.27L624.197 167.551C628.809 171.503 634.898 173.367 642.228 173.367V169.046ZM627.029 164.287C623.525 161.21 621.732 157.119 621.732 151.787H617.411C617.411 158.224 619.639 163.549 624.178 167.534L627.029 164.287ZM621.732 151.787C621.732 146.332 623.766 141.814 627.926 138.097L625.046 134.875C619.987 139.396 617.411 145.079 617.411 151.787H621.732ZM627.926 138.097C632.076 134.388 639.478 131.434 650.546 129.492L649.8 125.236C638.505 127.217 630.116 130.344 625.046 134.875L627.926 138.097ZM650.548 129.492L668.056 126.402L667.305 122.147L649.797 125.236L650.548 129.492ZM669.841 124.274V118.537H665.52V124.274H669.841ZM669.841 118.537C669.841 111.161 668.1 105.173 664.289 100.912L661.068 103.794C663.926 106.988 665.52 111.788 665.52 118.537H669.841ZM664.31 100.936C660.544 96.6 655.005 94.6018 648.113 94.6018V98.923C654.168 98.923 658.339 100.652 661.047 103.77L664.31 100.936ZM648.113 94.6018C643.705 94.6018 639.812 95.7378 636.547 98.102L639.082 101.602C641.506 99.8468 644.478 98.923 648.113 98.923V94.6018ZM636.559 98.0939C633.147 100.531 631.535 104.188 631.535 108.679H635.856C635.856 105.324 636.99 103.096 639.07 101.61L636.559 98.0939ZM631.535 108.679C631.535 110.974 632.316 113.039 633.82 114.793L637.101 111.981C636.251 110.989 635.856 109.916 635.856 108.679H631.535ZM633.732 112.091C633.125 112.9 632.025 113.793 630.228 114.692L632.16 118.557C634.287 117.493 636.031 116.228 637.189 114.684L633.732 112.091ZM630.228 114.692C628.49 115.561 626.736 116.069 624.957 116.239L625.367 120.54C627.707 120.318 629.975 119.649 632.16 118.557L630.228 114.692ZM626.69 116.862C626.33 116.502 625.825 115.884 625.166 114.944L621.626 117.422C622.341 118.443 623.013 119.297 623.634 119.917L626.69 116.862ZM625.166 114.944C624.816 114.443 624.527 113.603 624.527 112.21H620.206C620.206 114.152 620.604 115.96 621.626 117.422L625.166 114.944ZM624.527 112.21C624.527 109.617 625.272 107.187 626.813 104.876L623.217 102.479C621.227 105.464 620.206 108.723 620.206 112.21H624.527ZM626.813 104.876C628.406 102.486 630.496 100.432 633.114 98.7168L630.746 95.1023C627.675 97.1143 625.155 99.5721 623.217 102.479L626.813 104.876ZM633.156 98.6882C635.787 96.8736 638.857 95.4462 642.388 94.4241L641.186 90.2733C637.263 91.409 633.761 93.0222 630.703 95.1309L633.156 98.6882ZM642.388 94.4241C645.913 93.4037 649.584 92.8909 653.41 92.8909V88.5698C649.192 88.5698 645.116 89.1359 641.186 90.2733L642.388 94.4241ZM653.41 92.8909C662.581 92.8909 668.499 95.0047 671.82 98.6571L675.017 95.7504C670.491 90.7716 663.07 88.5698 653.41 88.5698V92.8909ZM671.836 98.6754C675.279 102.377 677.143 107.718 677.143 115.006H681.464C681.464 106.993 679.404 100.466 675 95.7322L671.836 98.6754ZM677.143 115.006V151.934H681.464V115.006H677.143ZM677.143 151.934C677.143 156.159 678.051 159.744 680.516 161.935L683.387 158.705C682.321 157.757 681.464 155.751 681.464 151.934H677.143ZM680.568 161.98C682.662 163.724 685.112 164.768 687.863 165.112L688.399 160.824C686.441 160.579 684.772 159.857 683.335 158.66L680.568 161.98ZM686.198 163.934L686.493 164.523L690.358 162.59L690.063 162.002L686.198 163.934ZM646.936 165.57C652.376 165.57 657.129 164.311 661.082 161.676L658.685 158.081C655.575 160.154 651.697 161.249 646.936 161.249V165.57ZM661.059 161.691C665.025 159.119 667.923 155.75 669.672 151.595L665.689 149.918C664.3 153.218 662 155.93 658.707 158.066L661.059 161.691ZM669.841 150.757V129.571H665.52V150.757H669.841ZM667.3 127.444L647.585 130.975L648.347 135.229L668.062 131.698L667.3 127.444ZM647.573 130.977C642.069 131.997 637.606 133.768 634.377 136.44L637.132 139.769C639.593 137.733 643.27 136.169 648.359 135.226L647.573 130.977ZM634.349 136.464C631.019 139.317 629.475 143.363 629.475 148.256H633.796C633.796 144.321 634.998 141.599 637.161 139.745L634.349 136.464ZM629.475 148.256C629.475 153.615 631.101 158.037 634.604 161.19L637.494 157.978C635.113 155.834 633.796 152.705 633.796 148.256H629.475ZM634.661 161.24C638.116 164.137 642.245 165.57 646.936 165.57V161.249C643.192 161.249 640.063 160.131 637.438 157.929L634.661 161.24ZM756.743 104.854L755.117 106.277L755.126 106.287L755.135 106.297L756.743 104.854ZM735.41 100.293L736.149 102.324L736.173 102.315L736.198 102.305L735.41 100.293ZM729.084 103.53L727.885 101.732L727.865 101.746L727.845 101.76L729.084 103.53ZM723.493 108.385L725.021 109.913L725.042 109.892L725.062 109.871L723.493 108.385ZM718.785 113.976L717.015 112.737L716.625 113.295V113.976H718.785ZM718.785 167.823L719.857 169.699L720.946 169.077V167.823H718.785ZM713.342 169.441L713.062 167.299L713.009 167.306L712.955 167.316L713.342 169.441ZM707.163 170.03H705.002V172.19H707.163V170.03ZM707.163 94.7027L706.173 92.782L705.002 93.3853V94.7027H707.163ZM718.05 92.2016H720.21V90.041H718.05V92.2016ZM718.05 106.767H715.889V113.149L719.766 108.079L718.05 106.767ZM722.905 101.47L724.393 103.037L724.395 103.035L722.905 101.47ZM729.672 96.1739L728.54 94.3338L728.524 94.3438L728.508 94.3541L729.672 96.1739ZM737.911 92.3487L738.595 94.3984L738.614 94.3919L738.634 94.3849L737.911 92.3487ZM766.453 97.9394L764.894 99.435L764.902 99.4432L764.91 99.4513L766.453 97.9394ZM773.515 167.823L774.587 169.699L775.676 169.077V167.823H773.515ZM768.072 169.441L767.792 167.299L767.738 167.306L767.685 167.316L768.072 169.441ZM761.892 170.03H759.732V172.19H761.892V170.03ZM764.053 123.097C764.053 114.54 762.304 107.816 758.351 103.411L755.135 106.297C758.048 109.543 759.732 114.981 759.732 123.097H764.053ZM758.369 103.431C754.443 98.9439 748.939 96.8087 742.178 96.8087V101.13C747.971 101.13 752.178 102.918 755.117 106.277L758.369 103.431ZM742.178 96.8087C739.633 96.8087 737.111 97.3077 734.623 98.2813L736.198 102.305C738.221 101.514 740.211 101.13 742.178 101.13V96.8087ZM734.672 98.2629C732.34 99.1109 730.078 100.271 727.885 101.732L730.282 105.328C732.21 104.043 734.165 103.045 736.149 102.324L734.672 98.2629ZM727.845 101.76C725.756 103.222 723.783 104.938 721.925 106.899L725.062 109.871C726.734 108.106 728.489 106.584 730.323 105.3L727.845 101.76ZM721.966 106.857C720.115 108.708 718.464 110.668 717.015 112.737L720.555 115.215C721.853 113.361 723.341 111.593 725.021 109.913L721.966 106.857ZM716.625 113.976V167.823H720.946V113.976H716.625ZM717.713 165.947C716.667 166.545 715.152 167.026 713.062 167.299L713.621 171.584C716.044 171.268 718.158 170.67 719.857 169.699L717.713 165.947ZM712.955 167.316C710.91 167.687 708.98 167.869 707.163 167.869V172.19C709.268 172.19 711.458 171.98 713.728 171.567L712.955 167.316ZM709.323 170.03V94.7027H705.002V170.03H709.323ZM708.152 96.6234C711.052 95.1296 714.336 94.3622 718.05 94.3622V90.041C713.721 90.041 709.747 90.941 706.173 92.782L708.152 96.6234ZM715.889 92.2016V106.767H720.21V92.2016H715.889ZM719.766 108.079C720.955 106.524 722.492 104.843 724.393 103.037L721.417 99.9039C719.395 101.825 717.694 103.675 716.333 105.454L719.766 108.079ZM724.395 103.035C726.352 101.171 728.499 99.4903 730.837 97.9937L728.508 94.3541C725.942 95.9962 723.577 97.8466 721.415 99.9058L724.395 103.035ZM730.805 98.014C733.209 96.5346 735.804 95.3287 738.595 94.3984L737.228 90.299C734.134 91.3303 731.236 92.6746 728.54 94.3338L730.805 98.014ZM738.634 94.3849C741.428 93.3935 744.419 92.8909 747.622 92.8909V88.5698C743.958 88.5698 740.476 89.1461 737.189 90.3125L738.634 94.3849ZM747.622 92.8909C755.1 92.8909 760.769 95.1348 764.894 99.435L768.013 96.4438C762.918 91.1319 756.032 88.5698 747.622 88.5698V92.8909ZM764.91 99.4513C769.106 103.735 771.355 109.986 771.355 118.537H775.676C775.676 109.236 773.216 101.756 767.997 96.4275L764.91 99.4513ZM771.355 118.537V167.823H775.676V118.537H771.355ZM772.443 165.947C771.397 166.545 769.882 167.026 767.792 167.299L768.351 171.584C770.774 171.268 772.888 170.67 774.587 169.699L772.443 165.947ZM767.685 167.316C765.64 167.687 763.71 167.869 761.892 167.869V172.19C763.998 172.19 766.188 171.98 768.458 171.567L767.685 167.316ZM764.053 170.03V123.097H759.732V170.03H764.053ZM865.146 163.556L866.998 164.668L867.608 163.651L867.078 162.59L865.146 163.556ZM863.674 165.322L862.147 163.794L862.088 163.853L862.034 163.916L863.674 165.322ZM861.615 167.382L862.911 169.11L862.976 169.061L863.037 169.008L861.615 167.382ZM858.966 169L858 167.068L857.958 167.089L857.917 167.111L858.966 169ZM856.465 170.03L856.33 172.186L856.665 172.207L856.989 172.126L856.465 170.03ZM848.521 166.499L846.959 167.992L846.976 168.01L846.993 168.027L848.521 166.499ZM844.99 157.671L847.147 157.555L846.729 149.819L843.083 156.655L844.99 157.671ZM841.459 162.379L842.986 163.907L843.01 163.884L843.032 163.86L841.459 162.379ZM835.721 166.793L836.82 168.653L836.832 168.646L836.844 168.639L835.721 166.793ZM828.218 169.883L827.643 167.8L827.61 167.809L827.577 167.819L828.218 169.883ZM802.324 165.91L800.898 167.534L800.908 167.542L800.918 167.551L802.324 165.91ZM803.207 136.486L801.767 134.875L801.767 134.875L803.207 136.486ZM826.893 127.364L827.267 129.492L827.269 129.492L826.893 127.364ZM844.401 124.274L844.777 126.402L846.562 126.087V124.274H844.401ZM839.399 102.353L837.768 103.77L837.778 103.782L837.789 103.794L839.399 102.353ZM814.535 99.852L815.791 101.61L815.802 101.602L814.535 99.852ZM812.181 113.387L813.91 114.684L814.949 113.297L813.822 111.981L812.181 113.387ZM807.915 116.624L808.881 118.557L808.881 118.557L807.915 116.624ZM801.882 118.39L800.355 119.917L801.074 120.637L802.087 120.54L801.882 118.39ZM800.117 116.183L801.887 114.944L801.887 114.944L800.117 116.183ZM801.735 103.677L799.938 102.479L799.938 102.479L801.735 103.677ZM808.65 96.9095L809.834 98.7168L809.856 98.7027L809.877 98.6882L808.65 96.9095ZM850.139 97.2038L848.54 98.6571L848.549 98.6663L848.557 98.6754L850.139 97.2038ZM858.672 160.32L857.237 161.935L857.262 161.957L857.289 161.98L858.672 160.32ZM864.851 162.968L866.784 162.002L866.267 160.967L865.119 160.824L864.851 162.968ZM836.604 159.878L835.428 158.066L835.416 158.073L835.405 158.081L836.604 159.878ZM844.401 150.757L846.392 151.595L846.562 151.193V150.757H844.401ZM844.401 129.571H846.562V126.989L844.02 127.444L844.401 129.571ZM824.687 133.102L824.306 130.975L824.293 130.977L824.687 133.102ZM812.475 138.104L811.098 136.44L811.083 136.451L811.069 136.464L812.475 138.104ZM812.77 159.584L811.324 161.19L811.352 161.215L811.381 161.24L812.77 159.584ZM863.293 162.445C863.131 162.715 862.782 163.159 862.147 163.794L865.202 166.85C865.94 166.112 866.572 165.379 866.998 164.668L863.293 162.445ZM862.034 163.916C861.522 164.513 860.91 165.127 860.192 165.756L863.037 169.008C863.888 168.263 864.65 167.504 865.315 166.728L862.034 163.916ZM860.318 165.653C859.649 166.155 858.878 166.628 858 167.068L859.933 170.932C861.016 170.391 862.011 169.785 862.911 169.11L860.318 165.653ZM857.917 167.111C857.161 167.532 856.504 167.793 855.941 167.934L856.989 172.126C857.996 171.874 859.007 171.449 860.016 170.889L857.917 167.111ZM856.6 167.873C853.969 167.709 851.822 166.744 850.048 164.971L846.993 168.027C849.535 170.569 852.684 171.958 856.33 172.186L856.6 167.873ZM850.082 165.005C848.338 163.183 847.32 160.758 847.147 157.555L842.832 157.788C843.051 161.843 844.387 165.303 846.959 167.992L850.082 165.005ZM843.083 156.655C842.415 157.908 841.369 159.323 839.885 160.899L843.032 163.86C844.687 162.101 845.995 160.378 846.896 158.688L843.083 156.655ZM839.931 160.852C838.504 162.279 836.733 163.648 834.597 164.948L836.844 168.639C839.22 167.192 841.275 165.619 842.986 163.907L839.931 160.852ZM834.622 164.933C832.654 166.096 830.335 167.057 827.643 167.8L828.792 171.966C831.789 171.139 834.472 170.041 836.82 168.653L834.622 164.933ZM827.577 167.819C824.963 168.63 822.092 169.046 818.949 169.046V173.367C822.475 173.367 825.783 172.901 828.858 171.946L827.577 167.819ZM818.949 169.046C812.351 169.046 807.357 167.379 803.73 164.27L800.918 167.551C805.529 171.503 811.619 173.367 818.949 173.367V169.046ZM803.749 164.287C800.245 161.21 798.452 157.119 798.452 151.787H794.131C794.131 158.224 796.36 163.549 800.898 167.534L803.749 164.287ZM798.452 151.787C798.452 146.332 800.486 141.814 804.646 138.097L801.767 134.875C796.707 139.396 794.131 145.079 794.131 151.787H798.452ZM804.646 138.097C808.796 134.388 816.199 131.434 827.267 129.492L826.52 125.236C815.226 127.217 806.837 130.344 801.767 134.875L804.646 138.097ZM827.269 129.492L844.777 126.402L844.026 122.147L826.518 125.236L827.269 129.492ZM846.562 124.274V118.537H842.241V124.274H846.562ZM846.562 118.537C846.562 111.161 844.821 105.173 841.009 100.912L837.789 103.794C840.647 106.988 842.241 111.788 842.241 118.537H846.562ZM841.03 100.936C837.264 96.6 831.726 94.6018 824.834 94.6018V98.923C830.889 98.923 835.06 100.652 837.768 103.77L841.03 100.936ZM824.834 94.6018C820.426 94.6018 816.533 95.7378 813.268 98.102L815.802 101.602C818.226 99.8468 821.199 98.923 824.834 98.923V94.6018ZM813.279 98.0939C809.867 100.531 808.255 104.188 808.255 108.679H812.576C812.576 105.324 813.71 103.096 815.791 101.61L813.279 98.0939ZM808.255 108.679C808.255 110.974 809.037 113.039 810.541 114.793L813.822 111.981C812.971 110.989 812.576 109.916 812.576 108.679H808.255ZM810.453 112.091C809.846 112.9 808.745 113.793 806.948 114.692L808.881 118.557C811.007 117.493 812.751 116.228 813.91 114.684L810.453 112.091ZM806.948 114.692C805.21 115.561 803.457 116.069 801.678 116.239L802.087 120.54C804.428 120.318 806.695 119.649 808.881 118.557L806.948 114.692ZM803.41 116.862C803.05 116.502 802.545 115.884 801.887 114.944L798.347 117.422C799.062 118.443 799.734 119.297 800.355 119.917L803.41 116.862ZM801.887 114.944C801.537 114.443 801.248 113.603 801.248 112.21H796.927C796.927 114.152 797.324 115.96 798.347 117.422L801.887 114.944ZM801.248 112.21C801.248 109.617 801.993 107.187 803.533 104.876L799.938 102.479C797.947 105.464 796.927 108.723 796.927 112.21H801.248ZM803.533 104.876C805.126 102.486 807.216 100.432 809.834 98.7168L807.466 95.1023C804.395 97.1143 801.875 99.5721 799.938 102.479L803.533 104.876ZM809.877 98.6882C812.508 96.8736 815.577 95.4462 819.108 94.4241L817.907 90.2733C813.983 91.409 810.481 93.0222 807.424 95.1309L809.877 98.6882ZM819.108 94.4241C822.633 93.4037 826.305 92.8909 830.13 92.8909V88.5698C825.913 88.5698 821.836 89.1359 817.907 90.2733L819.108 94.4241ZM830.13 92.8909C839.301 92.8909 845.22 95.0047 848.54 98.6571L851.738 95.7504C847.211 90.7716 839.791 88.5698 830.13 88.5698V92.8909ZM848.557 98.6754C852 102.377 853.863 107.718 853.863 115.006H858.184C858.184 106.993 856.125 100.466 851.721 95.7322L848.557 98.6754ZM853.863 115.006V151.934H858.184V115.006H853.863ZM853.863 151.934C853.863 156.159 854.772 159.744 857.237 161.935L860.108 158.705C859.042 157.757 858.184 155.751 858.184 151.934H853.863ZM857.289 161.98C859.383 163.724 861.833 164.768 864.583 165.112L865.119 160.824C863.162 160.579 861.492 159.857 860.055 158.66L857.289 161.98ZM862.919 163.934L863.213 164.523L867.078 162.59L866.784 162.002L862.919 163.934ZM823.657 165.57C829.096 165.57 833.85 164.311 837.802 161.676L835.405 158.081C832.295 160.154 828.418 161.249 823.657 161.249V165.57ZM837.779 161.691C841.745 159.119 844.643 155.75 846.392 151.595L842.41 149.918C841.02 153.218 838.72 155.93 835.428 158.066L837.779 161.691ZM846.562 150.757V129.571H842.241V150.757H846.562ZM844.02 127.444L824.306 130.975L825.068 135.229L844.782 131.698L844.02 127.444ZM824.293 130.977C818.79 131.997 814.326 133.768 811.098 136.44L813.853 139.769C816.313 137.733 819.991 136.169 825.08 135.226L824.293 130.977ZM811.069 136.464C807.74 139.317 806.195 143.363 806.195 148.256H810.516C810.516 144.321 811.718 141.599 813.881 139.745L811.069 136.464ZM806.195 148.256C806.195 153.615 807.821 158.037 811.324 161.19L814.215 157.978C811.833 155.834 810.516 152.705 810.516 148.256H806.195ZM811.381 161.24C814.836 164.137 818.966 165.57 823.657 165.57V161.249C819.913 161.249 816.784 160.131 814.158 157.929L811.381 161.24Z" fill="#9B9BFF" mask="url(#path-2-outside-1_55_5)"/>
</svg>
